<svg width="22" height="21" viewBox="0 0 22 21" fill="none" xmlns="http://www.w3.org/2000/svg">
<path d="M17.9498 14.75L14.7248 11.525C14.8915 11.2583 15.0206 10.9458 15.1123 10.5875C15.204 10.2292 15.2498 9.86668 15.2498 9.50001C15.2498 8.31668 14.8373 7.31251 14.0123 6.48751C13.1873 5.66251 12.1831 5.25001 10.9998 5.25001C10.6331 5.25001 10.2748 5.29168 9.9248 5.37501C9.5748 5.45835 9.25814 5.59168 8.9748 5.77501L6.2248 3.00001C6.80814 2.73335 7.55397 2.50001 8.4623 2.30001C9.37064 2.10001 10.2581 2.00001 11.1248 2.00001C13.3748 2.00001 15.4498 2.61668 17.3498 3.85001C19.2498 5.08335 20.6998 6.74168 21.6998 8.82501C21.7498 8.90835 21.7831 9.00835 21.7998 9.12501C21.8165 9.24168 21.8248 9.36668 21.8248 9.50001C21.8248 9.63335 21.8165 9.76251 21.7998 9.88751C21.7831 10.0125 21.7498 10.1167 21.6998 10.2C21.2665 11.1167 20.7331 11.9583 20.0998 12.725C19.4665 13.4917 18.7498 14.1667 17.9498 14.75ZM18.8498 19.85L15.1998 16.275C14.6165 16.5083 13.9581 16.6875 13.2248 16.8125C12.4915 16.9375 11.7498 17 10.9998 17C8.6998 17 6.59147 16.3833 4.6748 15.15C2.75814 13.9167 1.2998 12.2583 0.299805 10.175C0.249805 10.075 0.216471 9.97085 0.199805 9.86251C0.183138 9.75418 0.174805 9.63335 0.174805 9.50001C0.174805 9.36668 0.187305 9.23751 0.212305 9.11251C0.237305 8.98751 0.266471 8.88335 0.299805 8.80001C0.649805 8.05001 1.09564 7.32085 1.6373 6.61251C2.17897 5.90418 2.81647 5.23335 3.5498 4.60001L0.924805 1.97501C0.774805 1.82501 0.699805 1.65001 0.699805 1.45001C0.699805 1.25001 0.774805 1.07501 0.924805 0.925012C1.0748 0.775012 1.25397 0.700012 1.4623 0.700012C1.67064 0.700012 1.8498 0.775012 1.9998 0.925012L19.8998 18.825C20.0331 18.9583 20.0998 19.1208 20.0998 19.3125C20.0998 19.5042 20.0331 19.675 19.8998 19.825C19.7665 19.9917 19.5956 20.075 19.3873 20.075C19.179 20.075 18.9998 20 18.8498 19.85ZM10.9998 13.75C11.2331 13.75 11.4831 13.7292 11.7498 13.6875C12.0165 13.6458 12.2415 13.5833 12.4248 13.5L6.9998 8.07501C6.91647 8.27501 6.85397 8.50001 6.8123 8.75001C6.77064 9.00001 6.7498 9.25001 6.7498 9.50001C6.7498 10.7 7.16647 11.7083 7.9998 12.525C8.83314 13.3417 9.83314 13.75 10.9998 13.75ZM13.6248 10.425L10.0748 6.87501C11.1081 6.49168 12.0665 6.69168 12.9498 7.47501C13.8331 8.25835 14.0581 9.24168 13.6248 10.425Z" fill="#D92D20"/>
</svg>
